<svg xmlns="http://www.w3.org/2000/svg" viewBox="0 0 200 120" fill="none">
  <g fill="#F4A261" opacity="0.9">
    <path d="M100 20 C112 55 112 80 100 100 C88 80 88 55 100 20 Z" />
    <path d="M100 100 C70 95 50 75 46 50 C78 58 96 78 100 100 Z" />
    <path d="M100 100 C130 95 150 75 154 50 C122 58 104 78 100 100 Z" />
    <path d="M100 100 C60 100 30 86 18 64 C58 66 92 82 100 100 Z" opacity="0.8" />
    <path d="M100 100 C140 100 170 86 182 64 C142 66 108 82 100 100 Z" opacity="0.8" />
  </g>
</svg>
