<svg xmlns="http://www.w3.org/2000/svg" viewBox="0 0 400 400" fill="none">
  <g stroke="#FFD166" stroke-width="1" opacity="0.9">
    <circle cx="200" cy="200" r="190" />
    <circle cx="200" cy="200" r="150" />
    <circle cx="200" cy="200" r="110" />
    <circle cx="200" cy="200" r="70" />
    <circle cx="200" cy="200" r="30" />
  </g>
  <g stroke="#FFB703" stroke-width="1" opacity="0.8">
    <g id="petals">
      <path d="M200 10 C220 70 220 130 200 190 C180 130 180 70 200 10 Z" />
    </g>
    <use href="#petals" transform="rotate(30 200 200)" />
    <use href="#petals" transform="rotate(60 200 200)" />
    <use href="#petals" transform="rotate(90 200 200)" />
    <use href="#petals" transform="rotate(120 200 200)" />
    <use href="#petals" transform="rotate(150 200 200)" />
    <use href="#petals" transform="rotate(180 200 200)" />
    <use href="#petals" transform="rotate(210 200 200)" />
    <use href="#petals" transform="rotate(240 200 200)" />
    <use href="#petals" transform="rotate(270 200 200)" />
    <use href="#petals" transform="rotate(300 200 200)" />
    <use href="#petals" transform="rotate(330 200 200)" />
  </g>
  <g stroke="#F4A261" stroke-width="0.75" opacity="0.6">
    <line x1="200" y1="0" x2="200" y2="400" />
    <line x1="0" y1="200" x2="400" y2="200" />
    <line x1="30" y1="30" x2="370" y2="370" />
    <line x1="370" y1="30" x2="30" y2="370" />
  </g>
</svg>
